Coordinates
version=1
nRows=12
nColumns=34
inDegrees=yes

Units are S.I. units (second, meters, Newtons, ...)
If the header above contains a line with 'inDegrees', this indicates whether rotational values are in degrees (yes) or radians (no).

endheader
time	pelvis_tilt	pelvis_list	pelvis_rotation	pelvis_tx	pelvis_ty	pelvis_tz	hip_flexion_r	hip_adduction_r	hip_rotation_r	knee_angle_r	ankle_angle_r	subtalar_angle_r	mtp_angle_r	hip_flexion_l	hip_adduction_l	hip_rotation_l	knee_angle_l	ankle_angle_l	subtalar_angle_l	mtp_angle_l	lumbar_extension	lumbar_bending	lumbar_rotation	arm_flex_r	arm_add_r	arm_rot_r	elbow_flex_r	pro_sup_r	arm_flex_l	arm_add_l	arm_rot_l	elbow_flex_l	pro_sup_l
      0.00000000	     -6.80797411	     -0.70176759	     -1.92685017	      0.00702853	      1.31120483	     -0.08693494	      3.60759484	      0.88536916	      2.08228127	      3.20197207	      9.37392666	     -8.72723837	      0.00000000	      4.34801697	     -3.73909755	     -1.06480593	      4.44691322	      6.43834311	     -6.23016211	      0.00000000	      1.88235553	      1.28541691	     -2.12603694	      3.00581889	     -6.50439901	     24.01221596	     19.82505096	     72.01436553	      3.07964576	     -7.04093519	     19.27815772	     21.19655283	     67.19418139
      0.01666670	     -7.07322065	     -0.91876003	     -2.02251809	      0.00661897	      1.30979755	     -0.08621534	      3.49442588	      1.32509150	      1.82326038	      2.45737146	     10.71944547	     -6.84961978	      0.00000000	      4.08626754	     -3.89600732	     -1.06919751	      3.53543401	      5.36931914	     -6.09729612	      0.00000000	      2.51894883	      1.67952735	     -1.99848398	      3.48284388	     -5.52646149	     21.24916012	     17.56944661	     71.64684201	      3.04912419	     -6.61531340	     18.21197486	     22.20654632	     67.61077648
      0.03333330	     -7.62587810	     -0.66971641	     -2.57685543	      0.00478286	      1.30894348	     -0.08549392	      3.82307368	      1.30018883	      1.87472848	      1.85520435	     10.05309672	     -7.95310429	      0.00000000	      4.59793064	     -3.70568234	     -2.16728987	      3.44812728	      5.94083372	     -4.79834967	      0.00000000	      2.79683707	      1.20361816	     -1.25835082	      3.14766075	     -4.93763565	     16.14731205	     18.96698850	     72.17581078	      3.29972405	     -6.26535500	     14.95434527	     22.10108772	     68.92378825
      0.05000000	     -7.00304644	     -0.70077001	     -2.59213940	      0.00586014	      1.30841758	     -0.08487554	      2.87330779	      1.33148838	      1.36871084	      1.21616089	      9.97376528	     -7.15809993	      0.00000000	      3.47197565	     -3.68058935	     -2.05586059	      2.44809064	      6.06278335	     -4.47172662	      0.00000000	      1.84910029	      0.97388799	     -0.99950627	      2.74200340	     -3.96152616	      8.93411124	     20.42344282	     75.96505562	      3.28653932	     -5.85783828	     10.85178046	     22.84686663	     72.72495218
      0.06666670	     -7.18555765	     -0.58035347	     -2.74124843	      0.00357772	      1.31344123	     -0.08570433	      3.05180326	      1.23599386	      1.48521961	      0.98760089	      9.77662591	     -7.02643866	      0.00000000	      3.37837183	     -3.52359383	     -2.30612735	      1.97742971	      5.99034510	     -4.57036410	      0.00000000	      1.81738531	      0.80119506	     -0.83573902	      3.02999186	     -3.73760291	      8.88800470	     20.56589181	     76.13569177	      3.43606231	     -5.84633474	     10.78626644	     22.82984665	     72.84417436
      0.08333330	     -7.17126999	     -0.57600968	     -2.71727148	      0.00560283	      1.30771238	     -0.08439242	      2.88237029	      1.25567094	      1.47877564	      0.75980912	      9.84652221	     -7.07390145	      0.00000000	      3.36311329	     -3.52415608	     -2.30929884	      1.93497016	      6.10152064	     -4.58724357	      0.00000000	      1.92091343	      0.77340117	     -0.61724541	      3.31050448	     -3.59586750	      8.86667291	     20.71292006	     76.19903272	      3.44171267	     -5.82624512	     10.73461561	     22.84236411	     72.88296833
      0.10000000	     -6.77066894	     -0.58224435	     -2.43521126	      0.00760607	      1.30680683	     -0.08418510	      2.08260888	      1.25108873	      1.62391250	      0.09875791	      9.60491158	     -7.32560393	      0.00000000	      2.95158601	     -3.52518699	     -2.70447747	      1.80793260	      6.79785753	     -3.00239382	      0.00000000	      1.34210017	      0.69772303	     -0.59208073	      2.77855606	     -3.08351238	      3.31614012	     22.62790911	     85.26242753	      3.08288023	     -5.20301775	      4.45224755	     23.97358324	     79.79829870
      0.11666670	     -6.56098047	     -0.50802048	     -2.55829520	      0.00614688	      1.30576057	     -0.08442049	      1.79374723	      1.16526444	      1.95569549	      0.00000000	      9.52143815	     -7.49402227	      0.00000000	      2.65203895	     -3.43671600	     -2.37850664	      1.60322618	      6.33475344	     -4.04107962	      0.00000000	      1.16874753	      0.63172696	      0.38722875	      3.06211962	     -3.33709765	      4.32814132	     22.18214120	     86.64600992	      3.39657029	     -5.05967716	      5.19290160	     23.99633696	     81.03919261
      0.13333330	     -6.60556068	     -0.44952898	     -2.49860392	      0.00825913	      1.31194134	     -0.08481207	      1.71913189	      1.06872316	      1.68801330	      0.00000000	      9.28915319	     -7.49832192	      0.00000000	      2.64792084	     -3.37912524	     -2.32117776	      1.56934603	      6.19109864	     -3.85567911	      0.00000000	      1.36247205	      0.52236203	      0.48049000	      3.13284543	     -3.20419135	      4.44835984	     22.28508723	     86.81748787	      3.30961890	     -4.99904999	      5.21941520	     23.98333480	     81.19570770
      0.15000000	     -6.60755644	     -0.44438284	     -2.39291014	      0.00696566	      1.31223570	     -0.08424848	      1.71448447	      1.07970446	      1.65942900	      0.00000000	      9.28246777	     -7.50571231	      0.00000000	      2.60924520	     -3.39693169	     -2.35648883	      1.61868035	      6.16379719	     -3.86340067	      0.00000000	      1.44689746	      0.50885528	      0.58757702	      3.28414989	     -3.15951987	      4.46653285	     22.34882610	     86.83526776	      3.27335589	     -4.99004050	      5.22118723	     23.97899663	     81.21068654
      0.16666670	     -6.66754922	     -0.39782110	     -2.41304955	      0.00751961	      1.30968593	     -0.08422278	      1.80500583	      1.04089322	      1.40529235	      0.00000000	      9.06579292	     -7.48080483	      0.00000000	      2.69163481	     -3.37021745	     -2.61142024	      1.74284905	      5.83172854	     -3.89338303	      0.00000000	      1.57917023	      0.40276980	      0.79820209	      3.36035468	     -3.10516039	      4.66828870	     22.51100915	     87.03384761	      3.20274839	     -4.96014925	      5.22355896	     23.94930256	     81.37600486
      0.18333330	     -6.90737365	     -0.37795098	     -2.29556722	      0.00784143	      1.31488358	     -0.08439238	      2.11874049	      1.06720315	      1.44993999	      0.00000000	      9.28372989	     -6.97037075	      0.00000000	      2.88345878	     -3.36186408	     -2.36105863	      1.71401903	      5.42870707	     -4.18038449	      0.00000000	      2.03245742	      0.40814653	      0.58609415	      3.66370331	     -3.55027894	      7.58595530	     22.44381400	     93.14135477	      3.14511007	     -4.97032809	      4.99700091	     23.49098082	     87.56662242
